<?xml version="1.0" encoding="UTF-8"?>
<svg width="512" height="512" viewBox="0 0 512 512" version="1.1" xmlns="http://www.w3.org/2000/svg" xmlns:xlink="http://www.w3.org/1999/xlink">
	<metadata xmlns:rdf="http://www.w3.org/1999/02/22-rdf-syntax-ns#" xmlns:cc="http://creativecommons.org/ns#" xmlns:dc="http://purl.org/dc/elements/1.1/">
		<rdf:RDF>
			<cc:Work>
				<cc:license rdf:resource="http://creativecommons.org/licenses/by-sa/4.0/"/>
				<dc:creator>
					<cc:Agent>
						<dc:title>Yevhen Babiichuk (DustDFG)</dc:title>
					</cc:Agent>
				</dc:creator>
				<dc:subject>
					<rdf:Bag>
						<rdf:li>EULA</rdf:li>
						<rdf:li>Proprietary Software</rdf:li>
						<rdf:li>Satan</rdf:li>
						<rdf:li>Devil</rdf:li>
					</rdf:Bag>
				</dc:subject>
				<dc:date>21.01.2023</dc:date>
				<dc:language>English</dc:language>
				<dc:title>Devil EULA</dc:title>
				<dc:description>Satire on EULA and proprietary software</dc:description>
			</cc:Work>
		</rdf:RDF>
	</metadata>
	<defs>
		<radialGradient id="stone_gradient" cx="50%" cy="50%" r="50%">
			<stop stop-color="#483737" offset="0"/>
			<stop stop-color="#481737" offset="1"/>
		</radialGradient>
		<radialGradient id="lava_gradient" cx="256" cy="256" r="256" gradientTransform="matrix(4.5,0,0,3,-896,-512)" gradientUnits="userSpaceOnUse">
			<stop stop-color="#ff0000" offset="0"/>
			<stop stop-color="#d4ff00" offset="1"/>
		</radialGradient>
		<g color-interpolation-filters="sRGB">
			<filter id="background_filter" x="0%" y="0%" width="100%" height="100%">
				<feTurbulence numOctaves="5" seed="0" type="fractalNoise" baseFrequency="0.08"/>
				<feGaussianBlur stdDeviation="0.5" result="r1"/>
				<feDisplacementMap scale="20" yChannelSelector="G" xChannelSelector="R" in="SourceGraphic" in2="r1" result="r2"/>
				<feComposite in="r2" in2="SourceGraphic" operator="over"/>
			</filter>
			<filter id="paper_filter">
				<feTurbulence numOctaves="4" seed="4" type="fractalNoise" baseFrequency="0.032"/>
				<feGaussianBlur stdDeviation="0.5" result="r1"/>
				<feDisplacementMap scale="20" yChannelSelector="G" xChannelSelector="R" in="SourceGraphic" in2="r1"/>
			</filter>
		</g>
	</defs>
	<g id="backbround">
		<g transform="matrix(2.382183,0,0,1.6925861,5.9551674,4.2312592)">
			<g filter="url(#background_filter)">
				<g stroke-width="2.1" stroke="#481737" transform="matrix(0.4198,0,0,0.59081,-2.5,-2.5)">
					<rect x="0" y="0" width="512" height="512" fill="url(#lava_gradient)" stroke-width="3.5"/>
					<g id="stones" fill="url(#stone_gradient)">
						<path d="m325.22 367.55c10.66-6.5112 157.84 4.408 167.03 11.602 9.198 7.194 9.198 111.37-1.46 117.88-10.658 6.51-181.2 6.51-190.4-0.682s14.164-122.29 24.823-128.8z"/>
						<path d="m250.93 312.36c6.13 0.965 51.764 39.77 53.13 49.524 1.364 9.753-22.436 127.01-31.9 134.33-9.46 7.328-137.02 7.328-141.67-0.965s48.634-140.98 55.242-150.74c6.608-9.754 59.062-33.123 65.193-32.158z"/>
						<path d="m22.275 294.76c8.261 2.242 137.51 38.27 142.25 48.824 4.745 10.552-48.582 143.36-56.843 151.66-8.26 8.3-87.11 8.3-92.039-2.242-4.928-10.542-4.928-179.22-4.745-189.77 0.183-10.552 3.111-10.711 11.372-8.468z"/>
						<path d="m489.67 259.58c11.78 4.298 11.78 95.536 2.5 100.55-9.28 5.0136-157.77-6-169.96-9.17-12.194-3.166-58.8-42.8-61.302-46.414-2.5-3.61 4.116-21.722 16.31-24.26 12.194-2.537 200.68-25 212.46-20.707z"/>
						<path d="m162.05 214.33c10.731-2.338 69.752 23.71 74.333 27.16 4.581 3.45 18.865 32.591 19.316 35.62 0.4513 3.029-6.608 22.351-10.4 25.052-3.791 2.7-57.393 26.584-68.575 25.893s-136.5-35.626-137.29-41.775c-0.79-6.15 111.89-69.611 122.62-71.95z"/>
						<path d="m337.47 160.65c12.652-0.294 147.16 64.88 155.57 69.546s8.407 14.215-3.406 16.22c-11.813 2.005-200.82 24.535-213.47 24.233-12.652-0.302-26.067-27.67-22.661-33.747 3.406-6.078 71.319-75.958 83.971-76.252z"/>
						<path d="m118.7 140.14 40.492 63.457-145.9 82.172-2.579 0.14v-135.54z"/>
						<path d="m373.27 97.219c8.5067 0.019 114.88 19.927 121.53 26.464 6.648 6.537 6.648 91.211-1.6 92.508-8.247 1.296-140.2-62.636-148.71-67.948s-12.655-26.361-11.056-28.902c1.598-2.54 31.323-22.142 39.83-22.123z"/>
						<path d="m184.11 79.932c9.7481-0.82 123.57 35.778 130.94 39.385 7.3734 3.607 11.532 24.724 7.526 30.433s-72.265 75.944-80.18 78.724c-7.914 2.78-66.286-22.981-72.028-27.871-5.742-4.88-39.232-57.366-38.692-63.753 0.54-6.387 42.683-56.1 52.431-56.92z"/>
						<path d="m408.16 11.666c6.42-4.05 83.638-4.05 88.464 1.2014 4.826 5.251 4.826 89.263-1.594 93.313-6.42 4.049-109.14-15.172-113.97-20.422-4.827-5.251 20.676-70.042 27.097-74.091z"/>
						<path d="m179.66 10.63c10.651-3.013 192.63-3.013 202.4 1.065 9.77 4.078-15.913 69.322-19.4 74.639-3.484 5.317-33.556 25.144-42.6 24.08-9.046-1.065-123.71-37.935-131.6-43.252-7.89-5.317-19.445-53.52-8.794-56.532z"/>
						<path d="m18.078 14.412c7.36-6.8 125.1-6.796 133.2-3.7 8.101 3.096 19.982 52.637 18.021 58.922-1.96 6.284-45.208 57.3-53.31 61-8.101 3.7-94.475 11.88-99.873 5.594-5.4-6.2844-5.4-115.02 1.96-121.82z"/>
					</g>
				</g>
			</g>
		</g>
	</g>
	<g id="page" transform="rotate(1.5)">
		<rect fill="#ffe680" stroke="#000" stroke-width="2.5" filter="url(#paper_filter)" width="296" height="438" x="114.6" y="30.2"/>
		<g transform="rotate(.5)" font-family="Keter YG">
			<!-- The Keter YG font is a part of Culmus Project (https://culmus.sourceforge.io/) -->
			<g font-size="36" text-align="center" text-anchor="middle">
				<text x="262" y="67.6"><tspan fill="#f00">E</tspan>xplicitly <tspan fill="#f00">U</tspan>nfair</text>
				<text x="262" y="112.6"><tspan fill="#f00">L</tspan>icense <tspan fill="#f00">A</tspan>greement</text>
			</g>
			<g fill="#c8ab37" font-size="30px">
				<text x="126.8" y="171.9">Price:</text>
				<text x="126.8" y="206.9">* Your freedom</text>
				<text x="126.8" y="241.9">* Your privacy</text>
				<text x="126.8" y="276.9">* Your soul</text>
			</g>
		</g>
		<g id="pentagram" fill="none" stroke="#1a0034" stroke-linejoin="round" stroke-width="5.43">
			<path d="m344.21 418.41c-2.983 0-6.025-0.404-9.05-1.156-5.786-1.44-4.1 11.104-5.59 10.563-1.685-0.6124 0.506-11.9-3.9-14.073-11.41-5.625-21.272-15.724-24.9-26.892-5.53-17.021 2.112-40.54 16.59-51.063 14.48-10.52 39.212-10.52 53.69 0 3.546 2.576 6.682 5.933 9.315 9.7825 7.736 11.311 0.9 15.552 1.941 17.662 1.651 3.335 2.222-13.77 5.49-1.11 2.163 8.388 2.295 17.194-0.152 24.727-1.255 3.862-3.256 7.6-5.81 11.063-5.314 7.216-1.585 10.654-3.09 12.215-1.33 1.38 0.28-8.02-5.23-3.366-8.45 7.05-19.181 11.65-29.245 11.65z"/>
			<path d="m317.36 335.78 70.282 51.063h-14.207c-7.1 0-4.6 7.7145-4.6 7.7145-3.37 1 1.325-7.715-2.21-7.715h-41.215c-8.48 0 0.552 13.8-5.07 14.135-5.62 0.335 4.837-14.135-9.12-14.135h-10.454s21.745-15.8 32.62-23.7c6.526-4.7414 2.324 6.6 4.864 6.074 4.046-0.842-1.193-8.74 3.246-11.97 9.851-7.157 29.55-21.472 29.55-21.472l-26.845 82.621z"/>
		</g>
		<path id="sign_place" d="m133.5 400h135" fill="none" stroke="#000" stroke-linecap="round" stroke-width="2.5"/>
		<g id="mr_satan" fill="#e1001a">
			<!-- Handwritten font -->
			<path d="m228.2 444.2c-2.516 3.938-8.14 9.352-10.87 4.286-0.662-1.032-4.141 0.441-3.631 2.036 3.97 6.752 13.68-1.113 17-5.461 1.18 6.187 7.147 6.257 10.7 2.422-0.428 2.112-0.343 5.169 1.69 5.89 3.613 1.185 7.886-0.171 10.15-2.552 0.971-1.023-2.293-0.373-2.917-0.207-14.39 3.027 1.957-23.73-3.323-22.38-2.871 1.059-1.643-0.610-3.273 6.867-0.872 3.383-5.231 14.86-8.551 11.78-4.43-4.117-0.893-14.02 1.129-19.01 0.23-1.897-2.17 0.13-3.37 0.7445-1.197 0.6152-2.113 11.32-4.737 15.59z"/>
			<path d="m265 441.5c-8.19-5.063-1.735-3.954-10.21 2.748-0.573 1.24 2.224 0.095 3.536-0.344 3.104-4.284 2.175-0.768 5.371-0.27-1.304 2.862-5.51 6.527-4.462 8.722 1.157 2.426 4.706 2.493 6.886 1.71 5.511-1.982 4.131-2.308 3.11-3.612-3.033 2.376-7.812 3.4-6.016-0.47 1.531-3.297 3-6.646 5.793-8.872 1.081-2.043 0.05-1.39-2-0.513-1.8 0.86-1.937 0.354-2 0.903z"/>
			<circle cx="272.4" cy="453.1" r="1.39"/>
			<path d="m289.1 428.2c-0.548 8.134 11.25 11.59 10.16 18-1.113 6.563-10.78 6.925-13.19 0.861-1.24-3.124-2.796-2.394-4.312-0.563 0.02 0.656 0.19 0.615 1.198 0.496 0.62-0.073 0.405-0.212 0.806 1.077 0.286 0.692 0.602 1.429 1 2.03 3.91 5.413 14.2 6.238 16.47-2.664 2.7-10.37-10.16-13.37-9.6-18.55 0.645-5.945 5.774-4.072 8.28-0.508 0.5 0.725 2.54-0.866 2.036-1.4-1.56-1.655-2.866-3.861-5.9-4-3.032-0.14-6.638 0.718-6.942 5.228z"/>
			<path id="a_letter" d="m304.6 445.8s-0.328 0.463 0.242 0.655c-3.593 4.8-1.03 9.477 5.731 8.087 1.17-0.24 2.306-0.972 3.356-1.686 1.314 3.1 4.794 4.335 7.504 3.118 2.027-0.91 2.978-2.69 1.743-2.417-1.227 0.307-2.704 0.32-3.777 0.065-4-0.946-2.12-3.12-2.138-5.433 0.254-1.23 0.653-2.65 1.21-3.606 0.204-0.343-0.165-0.74-0.522-0.563l-2.375 1.186c-3.813-3.34-7.975-1.824-10.97 0.5934zm8.274 6.126c-7.23 2.592-7.923-1.972-5.028-5.897 3.198 0.207 2.244 0.6282 3.052-0.365 2.153 0.615 4 5.534 1.976 6.262z"/>
			<path d="m327.1 444.6c-1.708 0.033-0.57-0.409-3.02 1.784-0.824 0.868-1.129 0.73 2.55 0.634-0.3673 1.851-0.59 4-0.556 5.67 0.0755 3.704 5.082 2.35 7.617 1.13 1.444-0.706 2.885-1.302 3.923-2.396 0.993-1.046-1.036-0.716-1.264-0.345-0.225-0.846-4.411 2.676-6.881 1.383-0.583-0.316-0.154-3.942 0.093-5.548 1.69-0.044 0.631 0.3 3.344-1.701 1.074-0.792 1.038-0.716-2.93-0.657 1.808-9.42 0.893-8.02 2.334-11.28 0.016-1.268-3.047 0.37-3.028 0.95z"/>
			<use transform="translate(36.71 .42)" xlink:href="#a_letter"/>
			<path d="m363.1 456.2c5.143 0.302 1.573-1.666 3.758-8.25 1.474-5.042 3.073-6.605 4.413-6.7 4.376-0.31 0.266 8.97 0.957 11.81 1.568 5.483 6.4 2.247 8.756 0.185 0.320-0.293 0.01-0.816-0.401-0.674-1.837 0.68-3.19 2.048-4.375 0.57-2.862-3.571 2.321-11.06-0.192-13.89-2.027-1.871-6.328 0.4-7.838 2.346 0.3247-1.662 0.761-3.402 1.427-4.888 0.454-1.015-2.98-0.322-3.684 2.034-1.611 12.48-3.711 13.79-2.82 17.46z"/>
		</g>
	</g>
</svg>
